<svg width="315" height="106" viewBox="0 0 315 106" fill="none" xmlns="http://www.w3.org/2000/svg">
<rect width="315" height="106" fill="white"/>
<path d="M93.9375 63.375C95.0469 63.375 95.9062 63.0781 96.5156 62.4844C97.125 61.875 97.4219 61.0312 97.4062 59.9531H104.812C104.812 62.7344 103.812 65.0156 101.812 66.7969C99.8281 68.5781 97.2656 69.4688 94.125 69.4688C90.4375 69.4688 87.5312 68.3125 85.4062 66C83.2812 63.6875 82.2188 60.4844 82.2188 56.3906V56.0625C82.2188 53.5 82.6875 51.2422 83.625 49.2891C84.5781 47.3203 85.9453 45.8125 87.7266 44.7656C89.5078 43.7031 91.6172 43.1719 94.0547 43.1719C97.3516 43.1719 99.9688 44.0859 101.906 45.9141C103.844 47.7422 104.812 50.2188 104.812 53.3438H97.4062C97.4062 52.0312 97.0859 51.0234 96.4453 50.3203C95.8047 49.6172 94.9453 49.2656 93.8672 49.2656C91.8203 49.2656 90.625 50.5703 90.2812 53.1797C90.1719 54.0078 90.1172 55.1484 90.1172 56.6016C90.1172 59.1484 90.4219 60.9141 91.0312 61.8984C91.6406 62.8828 92.6094 63.375 93.9375 63.375ZM120.422 69.4688C116.531 69.4688 113.383 68.3125 110.977 66C108.57 63.6719 107.367 60.6484 107.367 56.9297V56.2734C107.367 53.6797 107.844 51.3906 108.797 49.4062C109.766 47.4219 111.172 45.8906 113.016 44.8125C114.859 43.7188 117.047 43.1719 119.578 43.1719C123.141 43.1719 125.953 44.2812 128.016 46.5C130.078 48.7031 131.109 51.7812 131.109 55.7344V58.8047H115.406C115.688 60.2266 116.305 61.3438 117.258 62.1562C118.211 62.9688 119.445 63.375 120.961 63.375C123.461 63.375 125.414 62.5 126.82 60.75L130.43 65.0156C129.445 66.375 128.047 67.4609 126.234 68.2734C124.438 69.0703 122.5 69.4688 120.422 69.4688ZM119.531 49.2656C117.219 49.2656 115.844 50.7969 115.406 53.8594H123.375V53.25C123.406 51.9844 123.086 51.0078 122.414 50.3203C121.742 49.6172 120.781 49.2656 119.531 49.2656ZM142.641 69H134.719V33H142.641V69ZM155.859 69H147.938V33H155.859V69ZM185.414 56.1328C185.414 53.5703 185.836 51.3047 186.68 49.3359C187.523 47.3672 188.734 45.8516 190.312 44.7891C191.891 43.7109 193.727 43.1719 195.82 43.1719C198.461 43.1719 200.523 44.0625 202.008 45.8438L202.289 43.6406H209.461V68.0391C209.461 70.2734 208.938 72.2109 207.891 73.8516C206.859 75.5078 205.359 76.7734 203.391 77.6484C201.422 78.5391 199.141 78.9844 196.547 78.9844C194.688 78.9844 192.883 78.6328 191.133 77.9297C189.398 77.2266 188.07 76.3125 187.148 75.1875L190.453 70.5469C191.922 72.2812 193.859 73.1484 196.266 73.1484C199.766 73.1484 201.516 71.3516 201.516 67.7578V66.9609C200 68.6328 198.086 69.4688 195.773 69.4688C192.68 69.4688 190.18 68.2891 188.273 65.9297C186.367 63.5547 185.414 60.3828 185.414 56.4141V56.1328ZM193.336 56.625C193.336 58.7031 193.727 60.3516 194.508 61.5703C195.289 62.7734 196.383 63.375 197.789 63.375C199.492 63.375 200.734 62.8047 201.516 61.6641V51C200.75 49.8438 199.523 49.2656 197.836 49.2656C196.43 49.2656 195.328 49.8984 194.531 51.1641C193.734 52.4141 193.336 54.2344 193.336 56.625ZM226.219 69.4688C222.328 69.4688 219.18 68.3125 216.773 66C214.367 63.6719 213.164 60.6484 213.164 56.9297V56.2734C213.164 53.6797 213.641 51.3906 214.594 49.4062C215.562 47.4219 216.969 45.8906 218.812 44.8125C220.656 43.7188 222.844 43.1719 225.375 43.1719C228.938 43.1719 231.75 44.2812 233.812 46.5C235.875 48.7031 236.906 51.7812 236.906 55.7344V58.8047H221.203C221.484 60.2266 222.102 61.3438 223.055 62.1562C224.008 62.9688 225.242 63.375 226.758 63.375C229.258 63.375 231.211 62.5 232.617 60.75L236.227 65.0156C235.242 66.375 233.844 67.4609 232.031 68.2734C230.234 69.0703 228.297 69.4688 226.219 69.4688ZM225.328 49.2656C223.016 49.2656 221.641 50.7969 221.203 53.8594H229.172V53.25C229.203 51.9844 228.883 51.0078 228.211 50.3203C227.539 49.6172 226.578 49.2656 225.328 49.2656ZM247.359 43.6406L247.617 46.6172C249.367 44.3203 251.781 43.1719 254.859 43.1719C257.5 43.1719 259.469 43.9609 260.766 45.5391C262.078 47.1172 262.758 49.4922 262.805 52.6641V69H254.883V52.9922C254.883 51.7109 254.625 50.7734 254.109 50.1797C253.594 49.5703 252.656 49.2656 251.297 49.2656C249.75 49.2656 248.602 49.875 247.852 51.0938V69H239.953V43.6406H247.359ZM279.469 69.4688C275.578 69.4688 272.43 68.3125 270.023 66C267.617 63.6719 266.414 60.6484 266.414 56.9297V56.2734C266.414 53.6797 266.891 51.3906 267.844 49.4062C268.812 47.4219 270.219 45.8906 272.062 44.8125C273.906 43.7188 276.094 43.1719 278.625 43.1719C282.188 43.1719 285 44.2812 287.062 46.5C289.125 48.7031 290.156 51.7812 290.156 55.7344V58.8047H274.453C274.734 60.2266 275.352 61.3438 276.305 62.1562C277.258 62.9688 278.492 63.375 280.008 63.375C282.508 63.375 284.461 62.5 285.867 60.75L289.477 65.0156C288.492 66.375 287.094 67.4609 285.281 68.2734C283.484 69.0703 281.547 69.4688 279.469 69.4688ZM278.578 49.2656C276.266 49.2656 274.891 50.7969 274.453 53.8594H282.422V53.25C282.453 51.9844 282.133 51.0078 281.461 50.3203C280.789 49.6172 279.828 49.2656 278.578 49.2656Z" fill="#E9429A" fill-opacity="0.5"/>
<path d="M160.617 61.2891L168.352 53.4141L160.664 45.5625L163.453 42.6797L171.164 50.5312L178.875 42.6797L181.664 45.5625L173.977 53.4141L181.711 61.2891L178.922 64.1719L171.164 56.2734L163.406 64.1719L160.617 61.2891Z" fill="white" fill-opacity="0.5"/>
<g filter="url(#filter0_d)">
<rect x="22" y="27" width="48" height="48" rx="3" fill="#E9429A"/>
<rect x="22.5" y="27.5" width="47" height="47" rx="2.5" stroke="white"/>
</g>
<mask id="mask0" mask-type="alpha" maskUnits="userSpaceOnUse" x="22" y="27" width="48" height="48">
<rect x="22" y="27" width="48" height="48" rx="3" fill="white"/>
</mask>
<g mask="url(#mask0)">
<rect x="37" y="42" width="28" height="28" fill="white"/>
<rect x="42" y="47" width="18" height="18" fill="#E9429A"/>
</g>
<rect x="27" y="42" width="6" height="28" fill="white"/>
<rect x="37" y="32" width="28" height="6" fill="white"/>
<g filter="url(#filter1_d)">
<rect x="22" y="27" width="48" height="48" rx="3" fill="#E9429A"/>
<rect x="23" y="28" width="46" height="46" rx="2" stroke="white" stroke-width="2"/>
</g>
<mask id="mask1" mask-type="alpha" maskUnits="userSpaceOnUse" x="22" y="27" width="48" height="48">
<rect x="22" y="27" width="48" height="48" rx="3" fill="white"/>
</mask>
<g mask="url(#mask1)">
<rect x="41" y="46" width="22" height="22" fill="white"/>
<rect x="46" y="51" width="12" height="12" fill="#E9429A"/>
</g>
<rect x="29" y="46" width="7" height="22" fill="white"/>
<rect x="41" y="34" width="22" height="7" fill="white"/>
<path d="M160.586 64.2891L168.32 56.4141L160.633 48.5625L163.422 45.6797L171.133 53.5312L178.844 45.6797L181.633 48.5625L173.945 56.4141L181.68 64.2891L178.891 67.1719L171.133 59.2734L163.375 67.1719L160.586 64.2891Z" fill="#E9429A" fill-opacity="0.5"/>
<defs>
<filter id="filter0_d" x="18" y="23" width="60" height="60" filterUnits="userSpaceOnUse" color-interpolation-filters="sRGB">
<feFlood flood-opacity="0" result="BackgroundImageFix"/>
<feColorMatrix in="SourceAlpha" type="matrix" values="0 0 0 0 0 0 0 0 0 0 0 0 0 0 0 0 0 0 127 0"/>
<feOffset dx="2" dy="2"/>
<feGaussianBlur stdDeviation="3"/>
<feColorMatrix type="matrix" values="0 0 0 0 0.572052 0 0 0 0 0.572052 0 0 0 0 0.572052 0 0 0 0.25 0"/>
<feBlend mode="normal" in2="BackgroundImageFix" result="effect1_dropShadow"/>
<feBlend mode="normal" in="SourceGraphic" in2="effect1_dropShadow" result="shape"/>
</filter>
<filter id="filter1_d" x="18" y="23" width="60" height="60" filterUnits="userSpaceOnUse" color-interpolation-filters="sRGB">
<feFlood flood-opacity="0" result="BackgroundImageFix"/>
<feColorMatrix in="SourceAlpha" type="matrix" values="0 0 0 0 0 0 0 0 0 0 0 0 0 0 0 0 0 0 127 0"/>
<feOffset dx="2" dy="2"/>
<feGaussianBlur stdDeviation="3"/>
<feColorMatrix type="matrix" values="0 0 0 0 0.572052 0 0 0 0 0.572052 0 0 0 0 0.572052 0 0 0 0.25 0"/>
<feBlend mode="normal" in2="BackgroundImageFix" result="effect1_dropShadow"/>
<feBlend mode="normal" in="SourceGraphic" in2="effect1_dropShadow" result="shape"/>
</filter>
</defs>
</svg>
