<svg width="271" height="54" viewBox="0 0 271 54" fill="none" xmlns="http://www.w3.org/2000/svg">
<g clip-path="url(#clip0)">
<path d="M74.9375 38.375C76.0469 38.375 76.9062 38.0781 77.5156 37.4844C78.125 36.875 78.4219 36.0312 78.4062 34.9531H85.812C85.812 37.7344 84.812 40.0156 82.812 41.7969C80.8281 43.5781 78.2656 44.4688 75.125 44.4688C71.4375 44.4688 68.5312 43.3125 66.4062 41C64.2812 38.6875 63.2188 35.4844 63.2188 31.3906V31.0625C63.2188 28.5 63.6875 26.2422 64.625 24.2891C65.5781 22.3203 66.9453 20.8125 68.7266 19.7656C70.5078 18.7031 72.6172 18.1719 75.0547 18.1719C78.3516 18.1719 80.9688 19.0859 82.906 20.9141C84.844 22.7422 85.812 25.2188 85.812 28.3438H78.4062C78.4062 27.0312 78.0859 26.0234 77.4453 25.3203C76.8047 24.6172 75.9453 24.2656 74.8672 24.2656C72.8203 24.2656 71.625 25.5703 71.2812 28.1797C71.1719 29.0078 71.1172 30.1484 71.1172 31.6016C71.1172 34.1484 71.4219 35.9141 72.0312 36.8984C72.6406 37.8828 73.6094 38.375 74.9375 38.375ZM101.422 44.4688C97.531 44.4688 94.383 43.3125 91.977 41C89.57 38.6719 88.367 35.6484 88.367 31.9297V31.2734C88.367 28.6797 88.844 26.3906 89.797 24.4062C90.766 22.4219 92.172 20.8906 94.016 19.8125C95.859 18.7188 98.047 18.1719 100.578 18.1719C104.141 18.1719 106.953 19.2812 109.016 21.5C111.078 23.7031 112.109 26.7812 112.109 30.7344V33.8047H96.406C96.688 35.2266 97.305 36.3438 98.258 37.1562C99.211 37.9688 100.445 38.375 101.961 38.375C104.461 38.375 106.414 37.5 107.82 35.75L111.43 40.0156C110.445 41.375 109.047 42.4609 107.234 43.2734C105.438 44.0703 103.5 44.4688 101.422 44.4688ZM100.531 24.2656C98.219 24.2656 96.844 25.7969 96.406 28.8594H104.375V28.25C104.406 26.9844 104.086 26.0078 103.414 25.3203C102.742 24.6172 101.781 24.2656 100.531 24.2656ZM123.641 44H115.719V8H123.641V44ZM136.859 44H128.938V8H136.859V44ZM166.414 31.1328C166.414 28.5703 166.836 26.3047 167.68 24.3359C168.523 22.3672 169.734 20.8516 171.312 19.7891C172.891 18.7109 174.727 18.1719 176.82 18.1719C179.461 18.1719 181.523 19.0625 183.008 20.8438L183.289 18.6406H190.461V43.0391C190.461 45.2734 189.938 47.2109 188.891 48.8516C187.859 50.5078 186.359 51.7734 184.391 52.6484C182.422 53.5391 180.141 53.9844 177.547 53.9844C175.688 53.9844 173.883 53.6328 172.133 52.9297C170.398 52.2266 169.07 51.3125 168.148 50.1875L171.453 45.5469C172.922 47.2812 174.859 48.1484 177.266 48.1484C180.766 48.1484 182.516 46.3516 182.516 42.7578V41.9609C181 43.6328 179.086 44.4688 176.773 44.4688C173.68 44.4688 171.18 43.2891 169.273 40.9297C167.367 38.5547 166.414 35.3828 166.414 31.4141V31.1328ZM174.336 31.625C174.336 33.7031 174.727 35.3516 175.508 36.5703C176.289 37.7734 177.383 38.375 178.789 38.375C180.492 38.375 181.734 37.8047 182.516 36.6641V26C181.75 24.8438 180.523 24.2656 178.836 24.2656C177.43 24.2656 176.328 24.8984 175.531 26.1641C174.734 27.4141 174.336 29.2344 174.336 31.625ZM207.219 44.4688C203.328 44.4688 200.18 43.3125 197.773 41C195.367 38.6719 194.164 35.6484 194.164 31.9297V31.2734C194.164 28.6797 194.641 26.3906 195.594 24.4062C196.562 22.4219 197.969 20.8906 199.812 19.8125C201.656 18.7188 203.844 18.1719 206.375 18.1719C209.938 18.1719 212.75 19.2812 214.812 21.5C216.875 23.7031 217.906 26.7812 217.906 30.7344V33.8047H202.203C202.484 35.2266 203.102 36.3438 204.055 37.1562C205.008 37.9688 206.242 38.375 207.758 38.375C210.258 38.375 212.211 37.5 213.617 35.75L217.227 40.0156C216.242 41.375 214.844 42.4609 213.031 43.2734C211.234 44.0703 209.297 44.4688 207.219 44.4688ZM206.328 24.2656C204.016 24.2656 202.641 25.7969 202.203 28.8594H210.172V28.25C210.203 26.9844 209.883 26.0078 209.211 25.3203C208.539 24.6172 207.578 24.2656 206.328 24.2656ZM228.359 18.6406L228.617 21.6172C230.367 19.3203 232.781 18.1719 235.859 18.1719C238.5 18.1719 240.469 18.9609 241.766 20.5391C243.078 22.1172 243.758 24.4922 243.805 27.6641V44H235.883V27.9922C235.883 26.7109 235.625 25.7734 235.109 25.1797C234.594 24.5703 233.656 24.2656 232.297 24.2656C230.75 24.2656 229.602 24.875 228.852 26.0938V44H220.953V18.6406H228.359ZM260.469 44.4688C256.578 44.4688 253.43 43.3125 251.023 41C248.617 38.6719 247.414 35.6484 247.414 31.9297V31.2734C247.414 28.6797 247.891 26.3906 248.844 24.4062C249.812 22.4219 251.219 20.8906 253.062 19.8125C254.906 18.7188 257.094 18.1719 259.625 18.1719C263.188 18.1719 266 19.2812 268.062 21.5C270.125 23.7031 271.156 26.7812 271.156 30.7344V33.8047H255.453C255.734 35.2266 256.352 36.3438 257.305 37.1562C258.258 37.9688 259.492 38.375 261.008 38.375C263.508 38.375 265.461 37.5 266.867 35.75L270.477 40.0156C269.492 41.375 268.094 42.4609 266.281 43.2734C264.484 44.0703 262.547 44.4688 260.469 44.4688ZM259.578 24.2656C257.266 24.2656 255.891 25.7969 255.453 28.8594H263.422V28.25C263.453 26.9844 263.133 26.0078 262.461 25.3203C261.789 24.6172 260.828 24.2656 259.578 24.2656Z" fill="#E9429A" fill-opacity="0.5"/>
<path d="M48 2H6C4.34315 2 3 3.34315 3 5V47C3 48.6569 4.34315 50 6 50H48C49.6569 50 51 48.6569 51 47V5C51 3.34315 49.6569 2 48 2Z" fill="#E9429A"/>
<path d="M48 2.5H6C4.61929 2.5 3.5 3.61929 3.5 5V47C3.5 48.3807 4.61929 49.5 6 49.5H48C49.3807 49.5 50.5 48.3807 50.5 47V5C50.5 3.61929 49.3807 2.5 48 2.5Z" stroke="white"/>
<path d="M46 17H18V45H46V17Z" fill="white"/>
<path d="M41 22H23V40H41V22Z" fill="#E9429A"/>
<path d="M14 17H8V45H14V17Z" fill="white"/>
<path d="M46 7H18V13H46V7Z" fill="white"/>
<path d="M48 2H6C4.34315 2 3 3.34315 3 5V47C3 48.6569 4.34315 50 6 50H48C49.6569 50 51 48.6569 51 47V5C51 3.34315 49.6569 2 48 2Z" fill="#E9429A"/>
<path d="M48 3H6C4.89543 3 4 3.89543 4 5V47C4 48.1046 4.89543 49 6 49H48C49.1046 49 50 48.1046 50 47V5C50 3.89543 49.1046 3 48 3Z" stroke="white" stroke-width="2"/>
<path d="M44 21H22V43H44V21Z" fill="white"/>
<path d="M39 26H27V38H39V26Z" fill="#E9429A"/>
<path d="M17 21H10V43H17V21Z" fill="white"/>
<path d="M44 9H22V16H44V9Z" fill="white"/>
<path d="M141.617 36.2891L149.352 28.4141L141.664 20.5625L144.453 17.6797L152.164 25.5312L159.875 17.6797L162.664 20.5625L154.977 28.4141L162.711 36.2891L159.922 39.1719L152.164 31.2734L144.406 39.1719L141.617 36.2891Z" fill="#F4A0CC"/>
</g>
<defs>
<clipPath id="clip0">
<rect width="271" height="54" fill="white"/>
</clipPath>
</defs>
</svg>
